<svg xmlns="http://www.w3.org/2000/svg" viewBox="0 0 100 100">
  <defs>
    <clipPath id="c">
      <circle cx="50" cy="50" r="48"/>
    </clipPath>
  </defs>

  <circle cx="50" cy="50" r="48" fill="#141922"/>

  <g clip-path="url(#c)">
    <!-- Shadow layer -->
    <rect x="22" y="17" width="10" height="5" fill="#166534"/>
    <rect x="22" y="22" width="5" height="5" fill="#166534"/>
    <rect x="22" y="27" width="5" height="5" fill="#166534"/>
    <rect x="22" y="32" width="5" height="5" fill="#166534"/>
    <rect x="22" y="37" width="5" height="5" fill="#166534"/>
    <rect x="22" y="42" width="10" height="5" fill="#166534"/>
    <rect x="22" y="47" width="5" height="5" fill="#166534"/>
    <rect x="22" y="52" width="5" height="5" fill="#166534"/>
    <rect x="22" y="57" width="5" height="5" fill="#166534"/>
    <rect x="22" y="62" width="5" height="5" fill="#166534"/>
    <rect x="22" y="67" width="5" height="5" fill="#166534"/>
    <rect x="22" y="72" width="5" height="5" fill="#166534"/>
    <rect x="22" y="77" width="5" height="5" fill="#166534"/>
    <rect x="22" y="82" width="5" height="5" fill="#166534"/>
    <rect x="27" y="17" width="5" height="5" fill="#166534"/>
    <rect x="32" y="17" width="5" height="5" fill="#166534"/>
    <rect x="37" y="17" width="5" height="5" fill="#166534"/>
    <rect x="42" y="17" width="5" height="5" fill="#166534"/>
    <rect x="47" y="17" width="5" height="5" fill="#166534"/>
    <rect x="52" y="17" width="5" height="5" fill="#166534"/>
    <rect x="57" y="17" width="5" height="5" fill="#166534"/>
    <rect x="62" y="17" width="5" height="5" fill="#166534"/>
    <rect x="62" y="22" width="5" height="5" fill="#166534"/>
    <rect x="62" y="27" width="5" height="5" fill="#166534"/>
    <rect x="62" y="32" width="5" height="5" fill="#166534"/>
    <rect x="62" y="37" width="5" height="5" fill="#166534"/>
    <rect x="27" y="42" width="5" height="5" fill="#166534"/>
    <rect x="32" y="42" width="5" height="5" fill="#166534"/>
    <rect x="37" y="42" width="5" height="5" fill="#166534"/>
    <rect x="42" y="42" width="5" height="5" fill="#166534"/>
    <rect x="47" y="42" width="5" height="5" fill="#166534"/>
    <rect x="52" y="42" width="5" height="5" fill="#166534"/>
    <rect x="57" y="42" width="5" height="5" fill="#166534"/>
    <rect x="62" y="42" width="5" height="5" fill="#166534"/>
    <rect x="47" y="47" width="5" height="5" fill="#166534"/>
    <rect x="52" y="52" width="5" height="5" fill="#166534"/>
    <rect x="57" y="57" width="5" height="5" fill="#166534"/>
    <rect x="62" y="62" width="5" height="5" fill="#166534"/>
    <rect x="67" y="67" width="5" height="5" fill="#166534"/>
    <rect x="67" y="72" width="5" height="5" fill="#166534"/>
    <rect x="67" y="77" width="5" height="5" fill="#166534"/>
    <rect x="67" y="82" width="5" height="5" fill="#166534"/>

    <!-- Bright layer - pixel grid R -->
    <rect x="19" y="14" width="5" height="5" fill="#4ade80"/>
    <rect x="19" y="19" width="5" height="5" fill="#4ade80"/>
    <rect x="19" y="24" width="5" height="5" fill="#4ade80"/>
    <rect x="19" y="29" width="5" height="5" fill="#4ade80"/>
    <rect x="19" y="34" width="5" height="5" fill="#4ade80"/>
    <rect x="19" y="39" width="5" height="5" fill="#4ade80"/>
    <rect x="19" y="44" width="5" height="5" fill="#4ade80"/>
    <rect x="19" y="49" width="5" height="5" fill="#4ade80"/>
    <rect x="19" y="54" width="5" height="5" fill="#4ade80"/>
    <rect x="19" y="59" width="5" height="5" fill="#4ade80"/>
    <rect x="19" y="64" width="5" height="5" fill="#4ade80"/>
    <rect x="19" y="69" width="5" height="5" fill="#4ade80"/>
    <rect x="19" y="74" width="5" height="5" fill="#4ade80"/>
    <rect x="19" y="79" width="5" height="5" fill="#4ade80"/>
    <rect x="24" y="14" width="5" height="5" fill="#4ade80"/>
    <rect x="29" y="14" width="5" height="5" fill="#4ade80"/>
    <rect x="34" y="14" width="5" height="5" fill="#4ade80"/>
    <rect x="39" y="14" width="5" height="5" fill="#4ade80"/>
    <rect x="44" y="14" width="5" height="5" fill="#4ade80"/>
    <rect x="49" y="14" width="5" height="5" fill="#4ade80"/>
    <rect x="54" y="14" width="5" height="5" fill="#4ade80"/>
    <rect x="59" y="14" width="5" height="5" fill="#4ade80"/>
    <rect x="59" y="19" width="5" height="5" fill="#4ade80"/>
    <rect x="59" y="24" width="5" height="5" fill="#4ade80"/>
    <rect x="59" y="29" width="5" height="5" fill="#4ade80"/>
    <rect x="59" y="34" width="5" height="5" fill="#4ade80"/>
    <rect x="24" y="39" width="5" height="5" fill="#4ade80"/>
    <rect x="29" y="39" width="5" height="5" fill="#4ade80"/>
    <rect x="34" y="39" width="5" height="5" fill="#4ade80"/>
    <rect x="39" y="39" width="5" height="5" fill="#4ade80"/>
    <rect x="44" y="39" width="5" height="5" fill="#4ade80"/>
    <rect x="49" y="39" width="5" height="5" fill="#4ade80"/>
    <rect x="54" y="39" width="5" height="5" fill="#4ade80"/>
    <rect x="59" y="39" width="5" height="5" fill="#4ade80"/>
    <rect x="44" y="44" width="5" height="5" fill="#4ade80"/>
    <rect x="49" y="49" width="5" height="5" fill="#4ade80"/>
    <rect x="54" y="54" width="5" height="5" fill="#4ade80"/>
    <rect x="59" y="59" width="5" height="5" fill="#4ade80"/>
    <rect x="64" y="64" width="5" height="5" fill="#4ade80"/>
    <rect x="64" y="69" width="5" height="5" fill="#4ade80"/>
    <rect x="64" y="74" width="5" height="5" fill="#4ade80"/>
    <rect x="64" y="79" width="5" height="5" fill="#4ade80"/>
  </g>
</svg>
